<?xml version="1.0" encoding="utf-8"?>
<!-- Generator: Adobe Illustrator 19.0.0, SVG Export Plug-In . SVG Version: 6.00 Build 0)  -->
<svg version="1.1" id="Layer_1" xmlns="http://www.w3.org/2000/svg" xmlns:xlink="http://www.w3.org/1999/xlink" x="0px" y="0px"
	 viewBox="0 0 791 220.5" style="enable-background:new 0 0 791 220.5;" xml:space="preserve">
<style type="text/css">
	.st0{fill:#FEFEFE;}
	.st1{fill:#F79B47;}
	.st2{fill:#5D94CD;}
	.st3{fill:#7DC143;}
	.st4{fill:#EFDA50;}
	.st5{fill:#855DA7;}
	.st6{fill:#EE4C4E;}
	.st7{fill:#EE4D4F;}
	.st8{fill:#EE4E50;}
	.st9{fill:#FEFEFD;}
	.st10{fill:#FCFDFD;}
	.st11{fill:#FDFEFD;}
</style>
<g>
	<g>
		<path class="st0" d="M0.2,221c0-73.6,0-147.2,0-220.8c263.8,0,527.5,0,791.3,0c0,73.6,0,147.2,0,220.8C527.8,221,264,221,0.2,221z
			 M169.9,147.1c-0.5,0.5-1,1-1.5,1.5c-2,1.9-3.8,4-6,5.7c-2,1.7-4.4,3-6.6,4.4c-4.1,2.6-8.7,4.2-13.4,5.4c-2.8,0.7-5.6,1.1-8.5,1.5
			c-4.4,0.7-8.8,0.9-13.2,0.4c-3.9-0.4-7.8-0.6-11.6-1.5c-4-0.9-7.9-2.3-11.7-3.7c-3.1-1.2-6.1-2.6-9-4.3c-4.4-2.4-8.4-5.3-12.3-8.5
			c-4.5-3.8-8.6-8-12.1-12.8c-2.3-3.3-4.6-6.6-6.5-10.2c-1.9-3.6-3.5-7.3-4.6-11.2c-1.2-4.1-2.2-8.3-2.7-12.6
			c-0.7-5.6-0.5-11.2,0.8-16.7c0.6-2.6,1.4-5.3,2.2-7.9c0.5-1.6,1.1-3.1,1.7-4.7c-2.7,3.1-5.3,6.3-7.8,9.5
			c-3.5,4.5-5.8,9.6-7.5,15.1c-1.3,4.2-1.8,8.5-1.9,12.9c-0.1,6.1,0.4,12.2,2.3,18c1.2,3.6,2.4,7.3,3.8,10.8c1.8,4.4,4.3,8.4,7,12.3
			c4.6,6.4,9.9,12,16.2,16.7c3.2,2.4,6.7,4.5,10.2,6.7c1.9,1.2,4,2.3,6.1,3.1c4.7,1.8,9.3,3.9,14.3,4.4c2.5,0.3,4.9,0.8,7.4,0.9
			c4.2,0.2,8.4,0.2,12.6,0c5.4-0.1,10.6-1.3,15.7-2.9c4.1-1.3,8.1-3.1,11.9-5.4c4.2-2.5,8.1-5.4,11.6-8.8c3.8-3.6,6.9-7.6,9.6-12
			C168,151.5,168.8,149.2,169.9,147.1c0,0,0.1-0.1,0.1-0.1C170,147,170,147,169.9,147.1C169.9,147.1,169.9,147.1,169.9,147.1z
			 M286.2,167.5C286.2,167.5,286.2,167.5,286.2,167.5c12.1,0,24.2,0,36.2,0c1.9,0,2.9-0.7,3.4-2.5c0.5-1.7,1-3.3,1.4-5
			c0.8-2.9,1.6-5.8,2.3-8.7c0.6-2.2,1-4.5,1.6-6.7c0.5-1.8-0.1-2.6-1.9-2.6c-3.3,0-6.6,0-10,0c-1.5,0-2-0.7-1.6-2.1
			c0.1-0.4,0.2-0.8,0.4-1.1c1.2-3,2.4-6.1,3.5-9.1c1.6-4.3,3.1-8.6,4.6-13c1.2-3.6,2.3-7.2,3.4-10.8c0.6-2.1,1-4.2,1.6-6.2
			c1.3-4.4,1.8-8.8,1.9-13.4c0-5-0.4-9.8-1.9-14.7c-1-3.4-2.2-6.7-3.9-9.8c-2.3-4.1-5-8-8.7-11c-2.3-1.9-4.6-3.8-7.1-5.3
			c-4.1-2.5-8.6-4.1-13.2-5.3c-4.5-1.1-9-1.7-13.6-1.7c-4.1,0-8.3,0.1-12.5,0.3c-1.9,0.1-3.7,0.4-5.6,0.8c-3,0.7-6,1.4-8.8,2.5
			c-3.5,1.3-6.9,2.7-10.1,4.5c-3.3,1.9-6.5,4.1-9.5,6.5c-4,3.3-7.5,7.1-10.4,11.4c-2.6,3.9-4.9,7.9-7.2,12c-1.2,2.2-2.1,4.7-3,7.1
			c-1.1,2.8-2.2,5.6-3,8.5c-1.1,3.8-2.1,7.7-2.8,11.6c-0.9,4.6-1.7,9.3-2,14c-0.3,4.5-0.2,9.1,0.3,13.6c0.4,3.7,1.3,7.4,2.4,10.9
			c1.4,4.3,3.6,8.1,6.5,11.6c2,2.4,4.2,4.4,6.7,6.2c5.5,4,11.9,5.9,18.5,7.2c2.7,0.5,5.5,0.8,8.2,0.8
			C263.5,167.6,274.8,167.5,286.2,167.5z M609.1,127.2c10,0,20.1,0,30.1,0c1.6,0,2.8-0.7,3.1-2.3c0.6-2.4,1.3-4.8,1.8-7.3
			c0.7-3.7,1.2-7.4,1.9-11.1c1-5.6,1.2-11.3,0.3-16.9c-0.6-4.1-1.7-8-4-11.4c-2.3-3.5-5.4-6.2-9.1-8.2c-4.5-2.4-9.3-3.7-14.2-4.3
			c-4.9-0.6-10-0.6-14.9-0.5c-3.7,0.1-7.5,0.7-11.2,1.2c-3.8,0.5-7.6,1.6-11.1,3.1c-3.2,1.4-6.3,3-9.2,5c-4,2.8-7.3,6.2-10.3,10.1
			c-2.7,3.6-4.8,7.5-6.6,11.5c-2.4,5.8-4.3,11.7-5.5,17.9c-0.9,4.6-1.9,9.2-2.6,13.8c-1,6-1.1,12,0,18c1,5.3,3.2,10,7,13.8
			c3.5,3.5,7.9,5.6,12.5,7.2c5,1.7,10.2,2.5,15.5,2.6c15.4,0.2,30.7,0.1,46.1,0.1c2.1,0,3.3-1,3.7-3.1c0.5-2.6,1-5.3,1.6-7.9
			c0.8-3.7,1.6-7.3,2.5-11c0.6-2.6-0.1-3.6-2.3-3.6c-15.7-0.3-31.5,0.7-47.2-0.5c-3-0.2-5.9-1-8.2-3.1c-3-2.7-3.5-6.3-3.1-10.1
			c0.3-2.1,1.3-3,3.5-3C589.1,127.2,599.1,127.2,609.1,127.2z M504,126c10.1,0,20.2,0,30.4,0c1.8,0,2.4-0.4,2.8-2.2
			c0.5-1.9,1.1-3.8,1.5-5.7c0.9-4.3,1.8-8.6,2.4-13c0.9-6.8,1.2-13.5-0.6-20.3c-1.1-4-2.8-7.6-5.5-10.7c-2.3-2.6-5-4.6-8.1-5.9
			c-2.7-1.1-5.5-2.1-8.3-2.7c-2.8-0.7-5.7-1.1-8.6-1.3c-3.5-0.2-7.1-0.3-10.7-0.1c-4.7,0.3-9.4,0.6-14,1.6c-5.1,1.1-10,2.9-14.6,5.6
			c-5.2,3-9.6,7-13.2,11.7c-3.1,4.1-5.5,8.7-7.4,13.5c-1.1,2.8-2.1,5.6-2.9,8.5c-0.9,3-1.6,6.1-2.3,9.2c-0.3,1.4-0.7,2.9-0.9,4.3
			c-0.6,3-1.3,6-1.6,9c-0.6,5.8-1,11.7,0.3,17.5c0.6,2.7,1.4,5.4,2.8,7.9c1.3,2.4,3.1,4.5,5.1,6.4c4.4,4,9.7,6.1,15.3,7.3
			c4.2,0.9,8.6,1.4,12.9,1.5c8.6,0.2,17.2,0.1,25.8,0.1c6.4,0,12.9,0,19.3,0c1.7,0,2.9-0.9,3.2-2.3c0.3-1.5,0.6-3,1-4.4
			c0.9-3.9,1.7-7.9,2.6-11.8c0.3-1.7,0.6-3.4,0.8-5c0.1-1.3-0.7-2-1.9-2c-14.3,0-28.6,0-42.9,0c-3.2,0-6.4-0.3-9.4-1.5
			c-2.5-0.9-4.6-2.4-5.7-5c-0.9-2.2-1.2-4.5-0.9-6.9c0.2-2.1,1.4-3.3,3.5-3.3C484.1,126,494,126,504,126z M395.2,167.2
			c8,0,15.9,0,23.9,0c1.9,0,3-0.8,3.5-2.6c0.3-1.1,0.4-2.3,0.6-3.4c1.1-5.3,2.2-10.6,3.3-15.9c1.3-5.9,2.5-11.8,3.8-17.7
			c1-4.6,2-9.2,3-13.8c0.9-4.2,1.8-8.3,2.7-12.5c0.5-2.2,1-4.3,1.5-6.5c1-4.9,2-9.7,3-14.6c0.8-4,1.6-7.9,2.5-11.9
			c0.4-1.7,0.3-3.1-2.3-3.1c-7,0-14,0-21,0c-1.2,0-2.3,0.3-2.9,1.5c-0.3,0.6-0.5,1.2-0.6,1.9c-0.8,3.8-1.6,7.5-2.4,11.3
			c-0.8,3.7-1.7,7.4-2.5,11.1c-1,4.5-1.9,9.1-2.9,13.6c-0.8,3.6-1.6,7.2-2.4,10.8c-1,4.5-1.9,9-2.8,13.4c-0.8,3.6-1.6,7.1-2.4,10.7
			c-0.5,2.2-1.3,2.8-3.6,2.8c-4.6,0-9.1,0-13.7,0c-1.7,0-3.5-0.2-5.2-0.4c-5.6-0.7-8.6-4.6-8.6-10c0-2.8,0.3-5.6,0.9-8.4
			c1.1-5.5,2-11,3.1-16.4c0.8-4.4,1.7-8.8,2.6-13.2c0.9-4.3,1.8-8.5,2.6-12.8c0.9-4.3,1.8-8.6,2.6-12.9c0.5-2.3,0-3-2.5-3
			c-2.7,0-5.4,0-8.2,0c-4.2,0-8.5,0-12.7,0c-2.1,0-3.4,0.4-3.9,3.1c-0.8,4-1.6,7.9-2.4,11.9c-0.8,3.8-1.7,7.6-2.5,11.4
			c-1,4.5-1.8,9.1-2.7,13.6c-0.9,4.3-1.9,8.5-2.6,12.8c-0.9,5.1-1.7,10.1-2.1,15.3c-0.6,6.9,0.1,13.7,3.2,20.1
			c1.6,3.3,3.8,5.9,6.7,8.2c3.9,3.1,8.6,4.3,13.4,5.1c2.4,0.4,4.9,0.5,7.4,0.5C380.2,167.2,387.7,167.2,395.2,167.2z M702.4,66.8
			C702.4,66.8,702.4,66.7,702.4,66.8c-10,0-20,0-30,0c-1.8,0-2.9,0.9-3.3,2.6c-0.3,1.3-0.6,2.6-0.8,3.8c-0.7,3.5-1.5,7-2.2,10.5
			c-0.5,2.4-1.1,4.8-1.6,7.2c-0.4,1.7-0.7,3.4-1,5.1c-0.5,2.6-1.1,5.2-1.7,7.9c-0.3,1.5-0.6,3-0.9,4.4c-0.5,2.5-1.1,4.9-1.7,7.4
			c-0.4,1.7-0.6,3.4-1,5.1c-0.5,2.4-1.1,4.8-1.6,7.3c-0.4,1.7-0.6,3.4-1,5c-0.5,2.5-1.1,4.9-1.7,7.4c-0.3,1.6-0.5,3.1-0.9,4.7
			c-0.6,2.6-1.2,5.2-1.8,7.8c-0.6,2.8-1.1,5.6-1.7,8.4c-0.3,1.7-0.8,3.4-1,5.1c-0.1,1.1,0.5,1.7,1.7,1.7c7.6,0,15.3,0,22.9,0
			c1.5,0,2.6-0.9,2.9-2.4c0.8-4.1,1.6-8.1,2.4-12.2c0.8-4.2,1.7-8.4,2.6-12.5c0.5-2.4,1.1-4.9,1.5-7.3c0.4-1.8,0.7-3.7,1-5.5
			c0.5-2.4,1.1-4.8,1.6-7.2c0.4-1.7,0.6-3.4,1-5c0.6-2.7,1.1-5.3,1.7-8c0.3-1.5,0.6-3,0.9-4.4c0.6-2.7,1.2-5.3,1.7-8
			c0.5-2.8,1.3-3.6,4.2-3.6c1.8,0,3.6,0,5.4,0c17.1,0,34.2,0,51.4,0c1.2,0,2.2-1.1,2-2.2c-0.9-3.6-1.8-7.2-2.6-10.7
			c-1.2-5.2-4.4-8.6-9.3-10.6c-3.2-1.3-6.6-1.6-10-1.7C721.8,66.7,712.1,66.8,702.4,66.8z M173.3,113c-0.6,0.7-1.3,1.5-1.9,2.2
			c-2.6,3.3-5.9,5.9-9.6,8c-2.7,1.5-5.7,2.6-8.6,3.7c-4.3,1.5-8.8,2.1-13.3,2c-3.5,0-7-0.3-10.4-1.1c-3.5-0.8-6.9-1.8-10.2-3.2
			c-4.7-2-9-4.5-12.9-7.6c-3.6-2.8-6.9-6-9.7-9.6c-2.9-3.8-5.3-7.9-7.2-12.4c-1.5-3.4-2.4-7-3-10.6c-0.9-5-0.8-10.1,0.4-15.1
			c0.7-2.7,1.2-5.4,2.7-7.9c0.2-0.3,0.2-0.6,0.3-0.9c-0.1,0-0.2-0.1-0.3-0.1c-0.9,1.3-1.7,2.6-2.6,3.9c-2.5,3.2-4.7,6.5-6.4,10.3
			c-1.9,4.4-2.9,9-3.1,13.7c-0.2,4.8,0.4,9.4,1.7,14c1.1,3.9,2.7,7.6,4.7,11.1c2.4,4.1,5,8,8.6,11.1c2.4,2.1,4.6,4.3,7.1,6.2
			c3.5,2.6,7.3,4.8,11.4,6.4c2.6,1,5.3,2.1,8.1,2.6c6.4,1.1,12.8,1.3,19.2,0.5c4.6-0.6,9.1-1.8,13.3-3.7c3.8-1.7,7.2-3.9,10.3-6.7
			c2.7-2.4,5.1-5.1,7.1-8.1C170.8,118.8,172.3,116.1,173.3,113z M118.2,53.3c-0.2,0.2-0.5,0.6-0.8,0.9c-2,2.6-4,5.4-5,8.6
			c-2.1,6.2-2,12.4,0.4,18.6c1.8,4.7,4.5,8.7,8.1,12.3c2.7,2.7,5.7,4.8,9.1,6.4c3,1.5,6.2,2.7,9.7,3.1c5.2,0.6,10.3,0.5,15.3-1.3
			c5.3-1.9,9.2-5.3,12.4-9.7c0.7-0.9,1.1-1.9,1.7-2.9c-0.3,0-0.5,0.2-0.7,0.4c-3,3.3-6.8,5.4-11.2,6.2c-5.8,1-11.6,0.4-17.2-1.5
			c-5.2-1.7-9.7-4.5-13.6-8.3c-2.7-2.6-5-5.6-6.6-8.9c-1.4-2.8-2.2-5.9-3-8.9c-0.7-2.6-0.8-5.4-0.2-8.1
			C117,57.7,117.6,55.5,118.2,53.3z"/>
		<path class="st1" d="M286.2,167.5c-11.3,0-22.6,0-34,0c-2.7,0-5.5-0.3-8.2-0.8c-6.6-1.3-13-3.2-18.5-7.2c-2.5-1.8-4.7-3.8-6.7-6.2
			c-3-3.5-5.2-7.3-6.5-11.6c-1.1-3.5-2.1-7.2-2.4-10.9c-0.5-4.5-0.6-9.1-0.3-13.6c0.3-4.7,1.2-9.3,2-14c0.7-3.9,1.7-7.8,2.8-11.6
			c0.8-2.9,1.9-5.7,3-8.5c0.9-2.4,1.8-4.9,3-7.1c2.3-4.1,4.6-8.1,7.2-12c2.9-4.3,6.4-8.1,10.4-11.4c3-2.4,6.1-4.6,9.5-6.5
			c3.2-1.8,6.7-3.2,10.1-4.5c2.8-1.1,5.8-1.8,8.8-2.5c1.8-0.4,3.7-0.7,5.6-0.8c4.1-0.2,8.3-0.4,12.5-0.3c4.6,0,9.2,0.6,13.6,1.7
			c4.6,1.2,9.1,2.8,13.2,5.3c2.5,1.5,4.8,3.4,7.1,5.3c3.7,3,6.4,6.9,8.7,11c1.7,3.1,2.9,6.4,3.9,9.8c1.5,4.8,1.9,9.7,1.9,14.7
			c0,4.5-0.6,9-1.9,13.4c-0.6,2.1-1,4.2-1.6,6.2c-1.1,3.6-2.2,7.3-3.4,10.8c-1.5,4.4-3,8.7-4.6,13c-1.1,3.1-2.4,6.1-3.5,9.1
			c-0.1,0.4-0.3,0.7-0.4,1.1c-0.4,1.5,0.1,2.1,1.6,2.1c3.3,0,6.6,0,10,0c1.8,0,2.4,0.8,1.9,2.6c-0.6,2.2-1.1,4.5-1.6,6.7
			c-0.7,2.9-1.5,5.8-2.3,8.7c-0.5,1.7-0.9,3.3-1.4,5c-0.5,1.8-1.5,2.5-3.4,2.5C310.3,167.5,298.2,167.5,286.2,167.5
			C286.2,167.5,286.2,167.5,286.2,167.5z M273.1,141.1C273.1,141.1,273.1,141.1,273.1,141.1c4.4,0,8.9,0,13.3,0
			c1.5,0,2.7-0.7,3.3-2.2c0.3-0.9,0.6-1.8,0.9-2.7c0.8-2.8,1.4-5.6,2.2-8.4c1-3.4,2-6.8,3-10.2c0.9-3.1,1.8-6.2,2.6-9.3
			c1-3.5,2-7.1,2.8-10.6c1.2-5.2,1.7-10.5,0.7-15.9c-0.9-4.9-2.9-9-6.7-12.2c-2.4-2.1-5.3-3.2-8.3-4c-4.1-1.1-8.3-1-12.5-0.7
			c-2,0.1-4,0.5-5.9,1c-2.8,0.8-5.5,1.8-7.9,3.4c-3.9,2.5-7.1,5.7-9.5,9.5c-1.7,2.6-3,5.5-4.2,8.4c-1.4,3.3-2.7,6.6-3.5,10
			c-1.2,5.1-2.1,10.4-2.8,15.6c-0.7,5.1-0.5,10.2,1.1,15.3c1.5,4.7,4.1,8.2,8.4,10.6c3.1,1.7,6.5,2.2,9.9,2.4
			C264.4,141.3,268.8,141.1,273.1,141.1z"/>
		<path class="st2" d="M609.1,127.2c-10,0-20,0-30,0c-2.1,0-3.2,0.8-3.5,3c-0.5,3.8,0.1,7.3,3.1,10.1c2.3,2.1,5.2,2.8,8.2,3.1
			c15.7,1.2,31.5,0.2,47.2,0.5c2.3,0,2.9,1,2.3,3.6c-0.9,3.7-1.7,7.3-2.5,11c-0.6,2.6-1.1,5.3-1.6,7.9c-0.4,2.1-1.6,3.1-3.7,3.1
			c-15.4,0-30.7,0.1-46.1-0.1c-5.2-0.1-10.5-0.9-15.5-2.6c-4.6-1.5-9-3.7-12.5-7.2c-3.8-3.8-6-8.5-7-13.8c-1.1-6-1-12,0-18
			c0.8-4.6,1.7-9.2,2.6-13.8c1.3-6.1,3.1-12.1,5.5-17.9c1.7-4.1,3.9-8,6.6-11.5c2.9-3.9,6.3-7.3,10.3-10.1c2.9-2,6-3.6,9.2-5
			c3.6-1.5,7.3-2.5,11.1-3.1c3.7-0.5,7.4-1.2,11.2-1.2c5-0.1,10-0.1,14.9,0.5c4.9,0.6,9.7,1.8,14.2,4.3c3.8,2,6.9,4.7,9.1,8.2
			c2.2,3.4,3.3,7.3,4,11.4c0.9,5.7,0.6,11.3-0.3,16.9c-0.6,3.7-1.1,7.4-1.9,11.1c-0.5,2.5-1.2,4.9-1.8,7.3c-0.4,1.6-1.5,2.3-3.1,2.3
			C629.1,127.2,619.1,127.2,609.1,127.2z M598.7,106c5.4,0,10.7,0,16.1,0c2.3,0,3.2-0.8,3.5-3c0.4-2.2-0.1-4.2-0.7-6.2
			c-0.8-2.5-2.5-4.3-4.7-5.4c-3.6-1.8-7.5-2.1-11.4-1.9c-2.5,0.2-5,0.5-7.4,1c-2.8,0.6-5.2,2-7.3,3.8c-2.8,2.3-4.7,5.4-6,8.7
			c-0.7,1.8-0.5,3,2,3C588,106,593.4,106,598.7,106z"/>
		<path class="st3" d="M504,126c-10,0-19.9,0-29.9,0c-2.2,0-3.3,1.1-3.5,3.3c-0.3,2.4,0,4.6,0.9,6.9c1.1,2.6,3.2,4,5.7,5
			c3,1.1,6.2,1.5,9.4,1.5c14.3,0,28.6,0,42.9,0c1.3,0,2.1,0.7,1.9,2c-0.2,1.7-0.5,3.4-0.8,5c-0.8,3.9-1.7,7.9-2.6,11.8
			c-0.3,1.5-0.6,3-1,4.4c-0.3,1.4-1.5,2.3-3.2,2.3c-6.4,0-12.9,0-19.3,0c-8.6,0-17.2,0.2-25.8-0.1c-4.3-0.1-8.7-0.6-12.9-1.5
			c-5.6-1.2-11-3.3-15.3-7.3c-2-1.8-3.8-3.9-5.1-6.4c-1.4-2.5-2.1-5.1-2.8-7.9c-1.4-5.8-0.9-11.7-0.3-17.5c0.3-3,1-6,1.6-9
			c0.3-1.4,0.6-2.9,0.9-4.3c0.7-3.1,1.4-6.2,2.3-9.2c0.9-2.9,1.9-5.7,2.9-8.5c1.9-4.8,4.3-9.4,7.4-13.5c3.6-4.8,8-8.7,13.2-11.7
			c4.6-2.7,9.5-4.5,14.6-5.6c4.6-1,9.3-1.3,14-1.6c3.5-0.2,7.1-0.2,10.7,0.1c2.9,0.2,5.8,0.6,8.6,1.3c2.8,0.7,5.6,1.6,8.3,2.7
			c3.1,1.3,5.8,3.3,8.1,5.9c2.7,3.1,4.4,6.7,5.5,10.7c1.8,6.7,1.4,13.5,0.6,20.3c-0.6,4.4-1.5,8.7-2.4,13c-0.4,1.9-1,3.8-1.5,5.7
			c-0.5,1.8-1,2.2-2.8,2.2C524.2,126,514.1,126,504,126z M493.8,104.9c5.5,0,11,0,16.4,0c1.4,0,2.8-0.9,3-2.2
			c0.4-3.1,0.3-6.1-1.4-8.9c-1.7-2.9-4.5-4.3-7.6-4.9c-2.9-0.6-5.9-0.6-8.8-0.6c-3.5,0-6.9,0.9-10,2.5c-4.8,2.4-7.8,6.5-9.7,11.4
			c-0.6,1.7,0,2.6,1.8,2.6C482.9,104.9,488.4,104.9,493.8,104.9z"/>
		<path class="st4" d="M395.2,167.2c-7.5,0-15,0-22.6,0c-2.5,0-5,0-7.4-0.5c-4.8-0.9-9.4-2-13.4-5.1c-2.8-2.2-5.1-4.9-6.7-8.2
			c-3.1-6.4-3.8-13.2-3.2-20.1c0.4-5.1,1.3-10.2,2.1-15.3c0.7-4.3,1.7-8.5,2.6-12.8c0.9-4.5,1.8-9.1,2.7-13.6
			c0.8-3.8,1.7-7.6,2.5-11.4c0.8-4,1.6-7.9,2.4-11.9c0.5-2.6,1.8-3.1,3.9-3.1c4.2,0,8.5,0,12.7,0c2.7,0,5.4,0,8.2,0
			c2.4,0,2.9,0.6,2.5,3c-0.9,4.3-1.8,8.6-2.6,12.9c-0.9,4.3-1.8,8.5-2.6,12.8c-0.9,4.4-1.8,8.8-2.6,13.2c-1,5.5-1.9,11-3.1,16.4
			c-0.6,2.8-0.9,5.6-0.9,8.4c0,5.4,3,9.4,8.6,10c1.7,0.2,3.5,0.4,5.2,0.4c4.6,0.1,9.1,0,13.7,0c2.3,0,3.1-0.7,3.6-2.8
			c0.8-3.6,1.6-7.1,2.4-10.7c1-4.5,1.9-9,2.8-13.4c0.8-3.6,1.6-7.2,2.4-10.8c1-4.5,1.9-9.1,2.9-13.6c0.8-3.7,1.7-7.4,2.5-11.1
			c0.8-3.8,1.6-7.5,2.4-11.3c0.1-0.7,0.3-1.3,0.6-1.9c0.6-1.1,1.7-1.5,2.9-1.5c7,0,14,0,21,0c2.5,0,2.6,1.4,2.3,3.1
			c-0.9,3.9-1.7,7.9-2.5,11.9c-1,4.9-2,9.7-3,14.6c-0.5,2.2-1,4.3-1.5,6.5c-0.9,4.2-1.8,8.3-2.7,12.5c-1,4.6-2,9.2-3,13.8
			c-1.3,5.9-2.6,11.8-3.8,17.7c-1.1,5.3-2.2,10.6-3.3,15.9c-0.2,1.1-0.3,2.3-0.6,3.4c-0.5,1.8-1.6,2.6-3.5,2.6
			C411.1,167.2,403.2,167.2,395.2,167.2z"/>
		<path class="st5" d="M702.4,66.8c9.7,0,19.4,0,29.2,0c3.4,0,6.8,0.4,10,1.7c4.9,1.9,8.1,5.4,9.3,10.6c0.8,3.6,1.8,7.2,2.6,10.7
			c0.3,1.1-0.8,2.2-2,2.2c-17.1,0-34.2,0-51.4,0c-1.8,0-3.6,0-5.4,0c-2.9,0-3.7,0.8-4.2,3.6c-0.5,2.7-1.1,5.4-1.7,8
			c-0.3,1.5-0.6,3-0.9,4.4c-0.6,2.7-1.1,5.3-1.7,8c-0.3,1.7-0.6,3.4-1,5c-0.5,2.4-1.1,4.8-1.6,7.2c-0.4,1.8-0.7,3.7-1,5.5
			c-0.5,2.4-1,4.9-1.5,7.3c-0.9,4.2-1.7,8.3-2.6,12.5c-0.8,4.1-1.6,8.1-2.4,12.2c-0.3,1.5-1.4,2.4-2.9,2.4c-7.6,0-15.3,0-22.9,0
			c-1.1,0-1.8-0.6-1.7-1.7c0.2-1.7,0.6-3.4,1-5.1c0.6-2.8,1.1-5.6,1.7-8.4c0.6-2.6,1.2-5.2,1.8-7.8c0.3-1.6,0.6-3.1,0.9-4.7
			c0.5-2.5,1.1-4.9,1.7-7.4c0.4-1.7,0.6-3.4,1-5c0.5-2.4,1.1-4.8,1.6-7.3c0.4-1.7,0.6-3.4,1-5.1c0.5-2.5,1.1-4.9,1.7-7.4
			c0.3-1.5,0.6-3,0.9-4.4c0.6-2.6,1.1-5.2,1.7-7.9c0.4-1.7,0.6-3.4,1-5.1c0.5-2.4,1.1-4.8,1.6-7.2c0.8-3.5,1.5-7,2.2-10.5
			c0.3-1.3,0.6-2.6,0.8-3.8c0.4-1.7,1.5-2.6,3.3-2.6C682.4,66.7,692.4,66.7,702.4,66.8C702.4,66.7,702.4,66.8,702.4,66.8z"/>
		<path class="st6" d="M169.9,147.1c-1.1,2.1-1.9,4.4-3.2,6.4c-2.7,4.4-5.9,8.5-9.6,12c-3.5,3.4-7.4,6.3-11.6,8.8
			c-3.8,2.2-7.7,4-11.9,5.4c-5.1,1.6-10.3,2.8-15.7,2.9c-4.2,0.1-8.4,0.1-12.6,0c-2.5-0.1-4.9-0.7-7.4-0.9
			c-5.1-0.5-9.7-2.6-14.3-4.4c-2.1-0.8-4.2-1.9-6.1-3.1c-3.5-2.1-7-4.2-10.2-6.7c-6.3-4.7-11.6-10.3-16.2-16.7
			c-2.8-3.9-5.2-7.9-7-12.3c-1.5-3.5-2.6-7.2-3.8-10.8c-1.9-5.9-2.4-11.9-2.3-18c0.1-4.4,0.6-8.7,1.9-12.9c1.7-5.4,4-10.5,7.5-15.1
			c2.5-3.2,5.1-6.4,7.8-9.5c-0.6,1.6-1.2,3.1-1.7,4.7c-0.8,2.6-1.6,5.2-2.2,7.9c-1.3,5.5-1.4,11.2-0.8,16.7
			c0.5,4.2,1.4,8.5,2.7,12.6c1.2,3.8,2.8,7.6,4.6,11.2c1.9,3.6,4.2,6.9,6.5,10.2c3.4,4.8,7.6,9,12.1,12.8c3.8,3.2,7.9,6.1,12.3,8.5
			c2.9,1.6,5.9,3.1,9,4.3c3.8,1.5,7.7,2.8,11.7,3.7c3.8,0.8,7.7,1.1,11.6,1.5c4.4,0.4,8.8,0.2,13.2-0.4c2.8-0.4,5.7-0.8,8.5-1.5
			c4.7-1.2,9.2-2.8,13.4-5.4c2.2-1.4,4.5-2.8,6.6-4.4c2.1-1.7,4-3.8,6-5.7C168.9,148.1,169.4,147.6,169.9,147.1L169.9,147.1z"/>
		<path class="st7" d="M173.3,113c-1,3.1-2.5,5.8-4.3,8.5c-2,3-4.4,5.7-7.1,8.1c-3.1,2.8-6.5,5-10.3,6.7c-4.2,1.9-8.7,3.1-13.3,3.7
			c-6.5,0.9-12.9,0.6-19.2-0.5c-2.8-0.5-5.5-1.6-8.1-2.6c-4.1-1.6-7.9-3.8-11.4-6.4c-2.5-1.9-4.8-4.1-7.1-6.2
			c-3.6-3.1-6.2-7.1-8.6-11.1c-2-3.5-3.6-7.2-4.7-11.1c-1.3-4.6-1.9-9.3-1.7-14c0.2-4.8,1.2-9.3,3.1-13.7c1.6-3.8,3.9-7.1,6.4-10.3
			c0.9-1.2,1.8-2.6,2.6-3.9c0.1,0,0.2,0.1,0.3,0.1c-0.1,0.3-0.1,0.7-0.3,0.9c-1.4,2.5-2,5.2-2.7,7.9c-1.2,5-1.3,10.1-0.4,15.1
			c0.6,3.6,1.6,7.2,3,10.6c1.9,4.5,4.3,8.6,7.2,12.4c2.8,3.6,6.1,6.8,9.7,9.6c4,3.1,8.3,5.7,12.9,7.6c3.3,1.4,6.7,2.4,10.2,3.2
			c3.4,0.8,6.9,1.1,10.4,1.1c4.5,0,9-0.5,13.3-2c2.9-1.1,5.9-2.1,8.6-3.7c3.6-2.1,6.9-4.7,9.6-8C172,114.4,172.7,113.7,173.3,113z"
			/>
		<path class="st8" d="M118.2,53.3c-0.6,2.2-1.2,4.4-1.7,6.7c-0.6,2.7-0.5,5.4,0.2,8.1c0.8,3,1.6,6.1,3,8.9c1.6,3.3,3.9,6.3,6.6,8.9
			c3.9,3.8,8.4,6.5,13.6,8.3c5.6,1.9,11.4,2.5,17.2,1.5c4.4-0.7,8.2-2.8,11.2-6.2c0.2-0.2,0.3-0.3,0.7-0.4c-0.6,1-1,2-1.7,2.9
			c-3.2,4.4-7.2,7.8-12.4,9.7c-5,1.8-10.1,1.9-15.3,1.3c-3.5-0.4-6.6-1.6-9.7-3.1c-3.3-1.6-6.4-3.8-9.1-6.4
			c-3.5-3.5-6.3-7.5-8.1-12.3c-2.4-6.2-2.5-12.4-0.4-18.6c1.1-3.2,3-5.9,5-8.6C117.7,53.9,118,53.6,118.2,53.3z"/>
		<path class="st6" d="M169.9,147.1C169.9,147.1,169.9,147.1,169.9,147.1c0.1-0.1,0.1-0.1,0.1-0.1
			C170,147.1,169.9,147.1,169.9,147.1C169.9,147.1,169.9,147.1,169.9,147.1z"/>
		<path class="st9" d="M273.1,141.1c-4.4,0-8.7,0.2-13.1-0.1c-3.4-0.2-6.8-0.8-9.9-2.4c-4.3-2.3-6.9-5.9-8.4-10.6
			c-1.6-5-1.8-10.1-1.1-15.3c0.7-5.2,1.6-10.5,2.8-15.6c0.8-3.4,2.1-6.7,3.5-10c1.2-2.9,2.6-5.7,4.2-8.4c2.4-3.8,5.6-7,9.5-9.5
			c2.5-1.6,5.2-2.6,7.9-3.4c1.9-0.6,3.9-0.9,5.9-1c4.2-0.2,8.4-0.4,12.5,0.7c3,0.8,5.8,2,8.3,4c3.8,3.2,5.8,7.3,6.7,12.2
			c1,5.4,0.4,10.7-0.7,15.9c-0.8,3.6-1.8,7.1-2.8,10.6c-0.8,3.1-1.7,6.2-2.6,9.3c-1,3.4-2.1,6.8-3,10.2c-0.8,2.8-1.5,5.6-2.2,8.4
			c-0.2,0.9-0.5,1.8-0.9,2.7c-0.6,1.5-1.8,2.2-3.3,2.2C282,141.1,277.6,141.1,273.1,141.1C273.1,141.1,273.1,141.1,273.1,141.1z"/>
		<path class="st10" d="M598.7,106c-5.3,0-10.6-0.1-15.9,0c-2.5,0-2.6-1.2-2-3c1.3-3.4,3.2-6.4,6-8.7c2.1-1.8,4.6-3.2,7.3-3.8
			c2.4-0.5,4.9-0.9,7.4-1c3.9-0.2,7.9,0.1,11.4,1.9c2.2,1.1,3.9,2.9,4.7,5.4c0.6,2.1,1,4.1,0.7,6.2c-0.4,2.2-1.3,3-3.5,3
			C609.4,106,604,106,598.7,106z"/>
		<path class="st11" d="M493.8,104.9c-5.4,0-10.9,0-16.3,0c-1.8,0-2.4-0.9-1.8-2.6c1.9-5,4.9-9,9.7-11.4c3.1-1.6,6.5-2.5,10-2.5
			c2.9,0,5.9,0,8.8,0.6c3.1,0.6,5.9,2,7.6,4.9c1.7,2.8,1.8,5.8,1.4,8.9c-0.2,1.4-1.5,2.2-3,2.2C504.8,104.9,499.3,104.9,493.8,104.9
			z"/>
	</g>
</g>
</svg>
