<?xml version="1.0" encoding="utf-8"?>
<!-- Generator: Adobe Illustrator 19.0.0, SVG Export Plug-In . SVG Version: 6.00 Build 0)  -->
<svg version="1.1" id="Layer_1" xmlns="http://www.w3.org/2000/svg" xmlns:xlink="http://www.w3.org/1999/xlink" x="0px" y="0px"
	 viewBox="0 0 523.3 588.6" style="enable-background:new 0 0 523.3 588.6;" xml:space="preserve">
<style type="text/css">
	.st0{fill:#EE4C4E;}
	.st1{fill:#EFDA50;}
	.st2{fill:#7EC243;}
	.st3{fill:#5E94CD;}
	.st4{fill:#865DA7;}
	.st5{fill:#5E95CD;}
	.st6{fill:#F79B48;}
	.st7{fill:#EEDB53;}
	.st8{fill:#EEDA53;}
	.st9{fill:#7EC244;}
	.st10{fill:#5F96CB;}
	.st11{fill:#F69C4A;}
	.st12{fill:#8760A9;}
	.st13{fill:#F69D4C;}
	.st14{fill:#C4AA53;}
	.st15{fill:#D0B26B;}
	.st16{fill:#BC8A56;}
	.st17{fill:#C5AA54;}
	.st18{fill:#C4AA54;}
</style>
<g>
	<g>
		<path class="st0" d="M360.8,110.8c-4.1-2.3-8.3-4.5-12.4-6.8c-17.6-10.1-35.2-20.2-52.8-30.4c-9.7-5.6-19.4-11.2-29-16.9
			c-3.1-1.8-5.9-1.8-9,0c-12.2,7.1-24.4,14-36.6,21.1c-9.8,5.6-19.4,11.4-29.2,17.1c-9.1,5.3-18.2,10.4-27.3,15.6
			c-0.3,0.2-0.8,0.2-1.1,0.3c-0.4,0-0.8,0-1.2,0c-22.2,0-44.4,0-66.7,0c-0.9,0-1.8-0.5-2.7-0.8c0,0,0.1-0.1,0.1-0.1
			c0.3-0.2,0.5-0.4,0.8-0.6c7.8-4.6,15.7-9.1,23.5-13.7c5.2-3.1,10.4-6.2,15.7-9.2c7.5-4.3,15-8.4,22.5-12.7
			c8.6-4.9,17.1-10,25.7-14.9c11.7-6.7,23.5-13.4,35.2-20.1c9.3-5.3,18.3-11,27.8-15.9c8.5-4.4,17.6-4.9,27-3.1
			c7.1,1.4,13.1,5.1,19.3,8.6c10.4,5.9,20.8,11.9,31.2,17.9c7.6,4.4,15.2,9,22.8,13.4c14.9,8.6,29.8,17.2,44.6,25.8
			c8.6,5,17.2,10,25.9,15c5.1,3,10.3,5.9,15.4,8.9c0.3,0.2,0.5,0.4,0.8,0.6c0,0,0.1,0.1,0.1,0.1c-0.9,0.3-1.8,0.8-2.7,0.8
			C406,110.7,383.4,110.7,360.8,110.8z"/>
		<path class="st1" d="M246.3,295.1c-5.2-2.7-9.2-6.7-12.6-11.3c-6.3-8.6-8.9-18.5-9.4-29.1c-0.4-7.7,0.3-15.4,2.7-22.6
			c1.7-5.1,4.4-9.9,7.2-14.5c3.4-5.5,8.2-9.8,13.4-13.7c0.4-0.3,0.8-0.3,1.3-0.5c26,0,51.9,0,77.9,0c19.7,0,39.5,0,59.2,0
			c0.9,0,1.8-0.5,2.7-0.8c6.8,4.1,12.1,9.8,16.7,16.3c4.2,6,7.1,12.6,8.9,19.5c1.6,6.1,2.2,12.5,3.1,18.7c0.5,3.6-2.9,6.1-6.1,6.2
			c-8.7,0.2-17.4,0.1-26.2,0c-2.7,0-4.9-2.3-5.7-4.8c-1.6-5.1-3.2-10.3-5.4-15.1c-3.1-6.9-8.5-11.7-15.3-15c-5.4-2.6-11.2-4-17.1-5
			c-11.6-1.9-23.2-2-34.9-1.5c-8.6,0.4-17.2,1.5-25.3,4.7c-6.8,2.7-12.8,6.6-15.2,13.9c-2.2,6.6-3.2,13.4,1.3,19.6
			c2.4,3.4,6.1,5.2,10,6.3c5.6,1.6,11.4,3.1,17.1,4.3c5.6,1.2,11.2,2,16.9,2.9c11,1.7,22,3.1,32.9,4.9c9.4,1.5,18.9,3.1,28.1,5.4
			c8.1,2.1,16,5.2,23.9,8c1.7,0.6,3.2,2,4.7,3c-1,0.1-1.9,0.2-2.9,0.2c-49.5,0-98.9,0-148.4,0C248.7,295,247.5,295.1,246.3,295.1z"
			/>
		<path class="st2" d="M246.3,295.1c1.2,0,2.4-0.1,3.6-0.1c49.5,0,98.9,0,148.4,0c1,0,1.9-0.1,2.9-0.2c5.8,2.5,10.3,6.7,14.2,11.5
			c5.7,7,8.3,15.2,9.5,23.9c1.5,10.8,0.7,21.4-2.7,31.7c-3,9-8.1,16.7-14.8,23.3c-0.5,0.5-1.3,0.8-2,1.2c-0.9,0-1.8-0.1-2.6-0.1
			c-38.1,0-76.3,0-114.4,0c-16.4,0-32.8,0-49.2,0c-5.1-3.9-9.2-8.7-12.2-14.3c-2.6-4.9-4.7-10.1-6.6-15.3c-1-2.6-1.3-5.5-1.7-8.3
			c-0.5-4.5-0.8-9-1-13.5c-0.1-3.4,2.3-5.8,5.8-5.8c8.6-0.1,17.3-0.1,25.9,0c3.4,0,5.8,2.6,6.3,6c0.7,5.6,2.1,10.9,4.5,16
			c3.7,7.9,10,13.1,17.9,16.5c6.1,2.6,12.6,3.8,19.1,4.8c13.1,2,26.2,2.2,39.3,1.5c9.9-0.5,19.8-1.5,29.2-5.1
			c6.6-2.6,12.8-6,16.1-12.5c3.8-7.3,5.3-15.2,1.5-23.1c-2.2-4.6-6.4-7-10.8-9c-7.1-3.3-14.8-4.9-22.4-6.3c-6.7-1.3-13.5-2.1-20.3-3
			c-5.9-0.8-11.9-1.2-17.8-1.9c-8.9-1.2-17.8-2.2-26.6-3.9c-10.2-2-20.4-4.2-29.8-8.9C252.5,298.8,249.5,296.9,246.3,295.1z"/>
		<path class="st3" d="M53.6,386.4c0.1,0.9,0.3,1.7,0.3,2.6c0,7,0.1,14.1,0,21.1c-0.1,3.4,1.2,5.7,4.1,7.3
			c10.6,6.1,21.2,12.3,31.8,18.4c7.9,4.5,15.8,9.1,23.8,13.5c8.2,4.5,17.2,6.2,26.3,4.5c9.5-1.9,16.9-7.8,19.8-19
			c0.7-2.6,0.9-5.3,0.9-8c0.1-12.5,0-24.9,0-37.4c0-1,0.1-1.9,0.1-2.9c12.4,0,24.8,0,37.3,0c0.1,0.9,0.3,1.9,0.3,2.8
			c0,12.2,0,24.4,0,36.7c0,9.7-0.8,19.3-3.8,28.5c-3.1,9.6-8.4,17.9-16.2,24.5c-0.1,0.1-0.3,0.1-0.5,0.1c-28.6,0-57.2,0-85.8,0
			c-4.9-2.7-9.7-5.4-14.6-8.1c-11.7-6.6-23.4-13.3-35-20c-7-4-13.6-8.5-17.8-15.5c-2.3-3.7-4-7.8-5.6-11.9c-2.1-5.3-2-11-1.9-16.6
			c0.1-6.8,0.1-13.6,0.1-20.4C29.3,386.4,41.5,386.4,53.6,386.4z"/>
		<path class="st4" d="M432.3,478.9c-6.1,3.6-12.1,7.3-18.3,10.8c-10.2,5.9-20.4,11.7-30.6,17.6c-10.1,5.8-20.1,11.7-30.2,17.6
			c-9.2,5.3-18.4,10.7-27.6,16c-13,7.5-26.1,14.7-38.9,22.4c-6.1,3.7-12.5,6.4-19.4,7.5c-7.6,1.2-15.1-0.2-21.9-3.5
			c-6.8-3.3-13.2-7.4-19.7-11.2c-10.4-6.1-20.9-12.2-31.3-18.3c-7.7-4.6-15.4-9.2-23.1-13.8c-1.1-0.6-2-1.5-2.9-2.4
			c-1.9-2-1.6-3.4,0.9-4.4c2.5-1.1,5.1-2.1,7.7-2.9c8.8-2.7,16.6-7.3,24.6-11.5c1.8-1,3.5-1,5.4,0.1c11.2,6.6,22.5,13.3,33.7,19.9
			c5.9,3.5,11.8,6.9,17.7,10.4c2.6,1.6,4.9,1.5,7.6,0c15.5-9,31.1-17.8,46.6-26.8c10.1-5.8,20-11.7,30.1-17.5
			c5.9-3.4,11.8-6.6,17.7-9.8C384.3,478.9,408.3,478.9,432.3,478.9z"/>
		<path class="st5" d="M432.3,478.9c-24,0-47.9,0-71.9-0.1c3-1.9,6-3.9,9.1-5.7c7.7-4.5,15.4-9,23.2-13.4c8.7-5,17.4-9.9,26.1-14.9
			c4.6-2.7,9.2-5.5,13.8-8.2c7.9-4.5,15.8-8.9,23.7-13.4c4-2.3,8.1-4.4,11.8-7.1c1.3-0.9,2.1-3.2,2.2-4.9c0.2-7.3,0.1-14.7,0.1-22.1
			c0-1,0.1-1.9,0.2-2.9c12.2,0,24.3,0,36.5,0c0,9.8,0.9,19.7-0.1,29.5c-1.2,12.1-6.7,22.6-17.1,29.5c-8.3,5.5-17,10.4-25.6,15.5
			c-10.1,6-20.3,11.8-30.5,17.7C433.2,478.8,432.7,478.8,432.3,478.9z"/>
		<path class="st6" d="M17.2,201.5c0-9.4-0.5-18.7,0.1-28.1c0.4-6.5,2.9-12.6,6.4-18.3c4.7-7.6,11.5-12.7,19.3-16.7
			c3.9-2,7.6-4.4,11.4-6.6c6.2-3.6,12.3-7.3,18.6-10.9c5.9-3.4,11.9-6.7,17.9-10.1c0.9,0.3,1.8,0.8,2.7,0.8
			c22.6,0.1,45.3,0.1,67.9,0.1c-2.5,1.6-5.1,3.3-7.7,4.8c-7.1,4.2-14.3,8.4-21.4,12.5c-16.5,9.5-33,18.9-49.5,28.4
			c-8.3,4.7-16.5,9.5-24.8,14.3c-2.3,1.3-3.9,3.1-4.4,5.8c-0.2,0.8-0.6,1.5-0.6,2.3c-0.1,7.5-0.1,15.1-0.1,22.6c-11,0-22,0-33,0
			C19.1,202.4,18.2,201.8,17.2,201.5z"/>
		<path class="st6" d="M470.3,176.5c-0.7-2.8-3-4.1-5.2-5.4c-11.6-6.7-23.2-13.5-34.8-20.1c-11.4-6.6-22.9-13.1-34.3-19.6
			c-11-6.3-22-12.6-33-19c-0.2-0.1-0.2-0.4-0.3-0.6c1,0,1.9,0,2.9,0c21.7,0,43.3,0,65,0c0.9,0,1.8-0.5,2.7-0.8
			c8.3,4.8,16.6,9.6,25,14.4c9.7,5.6,19.5,10.9,29.1,16.8c8.2,5,14,12.3,17,21.5c0.8,2.4,1.3,4.8,1.9,7.2c0,9.8-0.1,19.5,0,29.3
			c0,1.9-0.5,2.4-2.4,2.4c-10.1-0.1-20.2-0.1-30.2,0c-1.9,0-2.5-0.5-2.5-2.4c0.1-7,0.1-14.1,0-21.1
			C471.1,178.2,470.6,177.4,470.3,176.5z"/>
		<path class="st1" d="M198.1,203.2c0.1,0.9,0.3,1.9,0.3,2.8c0,28.8,0,57.6,0,86.5c0,0.9-0.2,1.7-0.3,2.6c-12.4,0-24.9,0-37.3,0
			c0-0.8-0.1-1.6-0.1-2.4c0-28.9,0-57.8,0-86.7c0-0.9,0.1-1.7,0.2-2.6c0,0,0.2-0.1,0.2-0.1c9.6,0,19.1,0.1,28.7,0.1
			C192.5,203.4,195.3,203.3,198.1,203.2C198,203.2,198.1,203.2,198.1,203.2z"/>
		<path class="st2" d="M160.8,295.1c12.4,0,24.9,0,37.3,0c0.1,0.8,0.2,1.6,0.2,2.4c0,28.8,0,57.7,0,86.5c0,0.8-0.1,1.6-0.2,2.4
			c-12.4,0-24.9,0-37.3,0c0-0.6-0.1-1.3-0.1-1.9c0-29.2,0-58.3,0-87.5C160.6,296.3,160.7,295.7,160.8,295.1z"/>
		<path class="st7" d="M53.1,202.4c0-7.5,0-15.1,0.1-22.6c0-0.8,0.4-1.5,0.6-2.3c0.1,4.3,0.2,8.6,0.2,12.9c0,34.2,0,68.3,0,102.5
			c0,0.9-0.1,1.7-0.2,2.6c-0.8-0.2-1.7-0.4-2.5-0.4c-11.3,0-22.6,0-34,0c0-0.6-0.1-1.3-0.1-1.9c0-29.2,0-58.4,0-87.6
			c0-0.7,0.1-1.4,0.1-2.1c11.3,0,22.5,0,33.8,0C51.7,203.4,52.4,202.7,53.1,202.4z"/>
		<path class="st8" d="M470.4,295.1c-0.1-0.8-0.2-1.6-0.2-2.4c0-29,0-58,0-86.9c0-0.8,0.1-1.6,0.2-2.4c12.2,0,24.4,0,36.5,0
			c0,0.7,0.1,1.4,0.1,2.1c0,29.1,0,58.3,0,87.4c0,0.7-0.1,1.4-0.1,2.1C494.8,295.1,482.6,295.1,470.4,295.1z"/>
		<path class="st9" d="M470.4,295.1c12.2,0,24.4,0,36.5,0c0,0.6,0.1,1.1,0.1,1.7c0,29.3,0,58.6,0,88c0,0.6-0.1,1.1-0.1,1.7
			c-12.2,0-24.3,0-36.5,0c-0.1-0.7-0.2-1.4-0.2-2.1c0-29,0-58,0-87C470.3,296.5,470.4,295.8,470.4,295.1z"/>
		<path class="st9" d="M17.2,295.1c11.3,0,22.6,0,34,0c0.8,0,1.7,0.3,2.5,0.4c0.1,0.9,0.2,1.7,0.2,2.6c0,28.6,0,57.1,0,85.7
			c0,0.9-0.2,1.7-0.3,2.6c-12.1,0-24.3,0-36.4,0c0-2.2-0.1-4.5-0.1-6.7c0-27.3,0-54.7,0-82C17.1,296.8,17.2,295.9,17.2,295.1z"/>
		<path class="st10" d="M239.1,386.4c16.4,0,32.8,0,49.2,0c38.1,0,76.3,0,114.4,0c0.9,0,1.8,0.1,2.6,0.1c-2.9,2.3-5.5,4.9-8.6,6.8
			c-12.3,7.7-25.9,11.9-40.2,14.2c-13.1,2.1-26.3,3.1-39.6,2.6c-8.7-0.4-17.3-1.5-25.9-2.6c-6.3-0.9-12.7-1.8-18.7-3.7
			c-6.6-2-13.1-4.7-19.3-7.8c-4.8-2.4-9.2-5.9-13.7-8.9C239.2,386.9,239.2,386.6,239.1,386.4z"/>
		<path class="st11" d="M250.3,202.4c3-1.9,6-3.9,9.1-5.6c7.4-3.9,15.5-6,23.6-8c3-0.7,6.1-0.7,9.1-1.3c11.3-2,22.7-1.9,34-1.7
			c4.9,0.1,9.9,0.3,14.8,1c12.1,1.8,24.2,3.6,35.3,8.9c4.1,1.9,7.9,4.4,11.8,6.6c-5.5,0-11,0.1-16.5,0.1
			C331.2,202.4,290.8,202.4,250.3,202.4z"/>
		<path class="st12" d="M92.1,478.9c28.6,0,57.2,0,85.8,0c-3.6,2.4-7,5.2-10.9,7c-12.1,5.7-25.1,6.8-38.1,5.6
			c-6.7-0.6-13.3-2.7-19.7-4.8c-5.4-1.8-10.6-4.5-15.8-6.9C92.9,479.6,92.5,479.2,92.1,478.9z"/>
		<path class="st13" d="M198.1,203.2C198.1,203.2,198,203.2,198.1,203.2c-0.7-0.3-1.3-0.8-2-0.8c-11,0-22,0-33,0
			c-0.7,0-1.3,0.5-2,0.8c0,0-0.2,0.1-0.2,0.1c-0.1-2.1-0.2-4.1-0.1-6.2c0.2-3,2.5-5.1,5.5-5.1c8.8,0,17.5,0,26.3,0
			c3.1,0,5.2,2.2,5.7,5.8C198.5,199.5,198.1,201.4,198.1,203.2z"/>
		<path class="st14" d="M250.3,202.4c40.4,0,80.9,0,121.3,0c5.5,0,11,0,16.5-0.1c0.2,0.1,0.3,0.1,0.5,0.2c-0.9,0.3-1.8,0.8-2.7,0.8
			c-19.7,0-39.5,0-59.2,0c-26,0-51.9,0-77.9,0C249.4,203,249.8,202.7,250.3,202.4z"/>
		<path class="st15" d="M507,203.4c-12.2,0-24.4,0-36.5,0c-0.1-5.6-0.2-11.3-0.2-16.9c0-3.3,0-6.7,0.1-10c0.3,0.8,0.8,1.6,0.8,2.4
			c0.1,7,0.1,14.1,0,21.1c0,1.9,0.6,2.4,2.5,2.4c10.1-0.1,20.2-0.1,30.2,0c1.9,0,2.5-0.5,2.4-2.4c-0.1-9.8,0-19.5,0-29.3
			c0.3,0.5,0.8,1,0.8,1.5C507,182.7,507,193,507,203.4z"/>
		<path class="st16" d="M161.6,111.8c-22.6,0-45.3,0-67.9-0.1c-0.9,0-1.8-0.5-2.7-0.8c0.6-0.3,1.3-0.7,1.9-1
			c0.9,0.3,1.8,0.8,2.7,0.8c22.2,0,44.4,0,66.7,0c0.4,0,0.8,0,1.2,0C162.8,111.1,162.2,111.4,161.6,111.8z"/>
		<path class="st16" d="M433.2,110.9c-0.9,0.3-1.8,0.8-2.7,0.8c-21.7,0-43.3,0-65,0c-1,0-1.9,0-2.9,0c-0.6-0.3-1.2-0.7-1.9-1
			c22.6,0,45.2,0,67.8-0.1c0.9,0,1.8-0.5,2.7-0.8C431.9,110.2,432.6,110.6,433.2,110.9z"/>
		<path class="st17" d="M53.1,202.4c-0.7,0.3-1.3,1-2,1c-11.3,0.1-22.5,0-33.8,0c0-0.6,0-1.3,0-1.9c0.9,0.3,1.9,0.9,2.8,0.9
			C31.1,202.4,42.1,202.4,53.1,202.4z"/>
		<path class="st16" d="M93.8,109.2c-0.3,0.2-0.5,0.4-0.8,0.6C93.3,109.6,93.6,109.4,93.8,109.2z"/>
		<path class="st16" d="M431.2,109.8c-0.3-0.2-0.5-0.4-0.8-0.6C430.7,109.4,430.9,109.6,431.2,109.8z"/>
		<path class="st18" d="M161,203.3c0.7-0.3,1.3-0.8,2-0.8c11-0.1,22-0.1,33,0c0.7,0,1.3,0.5,2,0.8c-2.8,0.1-5.6,0.2-8.3,0.2
			C180.1,203.4,170.6,203.3,161,203.3z"/>
	</g>
</g>
</svg>
