<?xml version="1.0" encoding="utf-8"?>
<!-- Generator: Adobe Illustrator 19.0.0, SVG Export Plug-In . SVG Version: 6.00 Build 0)  -->
<svg version="1.1" id="Layer_1" xmlns="http://www.w3.org/2000/svg" xmlns:xlink="http://www.w3.org/1999/xlink" x="0px" y="0px"
	 viewBox="0 0 612 612" style="enable-background:new 0 0 612 612;" xml:space="preserve">
<style type="text/css">
	.st0{fill:#EE4B4D;}
	.st1{fill:#F79A47;}
	.st2{fill:#EFDA4F;}
	.st3{fill:#855CA6;}
	.st4{fill:#7DC142;}
	.st5{fill:#5D94CD;}
</style>
<g>
	<g>
		<path class="st0" d="M0.5,103.2c0-34.2,0-68.5,0-102.7c204,0,408,0,612,0c0,34.2,0,68.5,0,102.7c-1.2,0-2.4,0.1-3.6,0.1
			c-201.6,0-403.2,0-604.8,0C2.9,103.3,1.7,103.2,0.5,103.2z"/>
		<path class="st1" d="M0.5,103.2c1.2,0,2.4,0.1,3.6,0.1c201.6,0,403.2,0,604.8,0c1.2,0,2.4-0.1,3.6-0.1c0,34.1,0,68.2,0,102.2
			c-1.2,0-2.4,0-3.6,0c-201.6,0-403.2,0-604.8,0c-1.2,0-2.4,0-3.6,0C0.5,171.4,0.5,137.3,0.5,103.2z"/>
		<path class="st2" d="M0.5,205.4c1.2,0,2.4,0,3.6,0c201.6,0,403.2,0,604.8,0c1.2,0,2.4,0,3.6,0c0,33.9,0,67.8,0,101.8
			c-5.2,0-10.4-0.1-15.6-0.1c-20.8,0-41.6,0-62.3,0.1c-0.5-0.6-1.1-1.1-1.6-1.7c-9.7-11.9-21.7-20.4-36.4-25
			c-12.7-4-25.8-5.4-39.1-4.8c-10.5,0.5-20.8,2.3-30.7,6.1c-13.8,5.3-25.2,13.7-34.1,25.5c-1.3,0-2.6-0.1-3.8-0.1
			c-19.1,0-38.2,0-57.3,0c0-8.3-0.1-16.6-0.1-24.9c0-3.7,0-3.7-3.6-3.7c-16.2,0-32.4,0-48.6,0c-5,0-5,0-5,5.1
			c0,7.8-0.1,15.6-0.2,23.5c-1.3,0-2.6,0-3.8,0c-88.7,0-177.3,0-266,0c-1.3,0-2.6,0-3.8,0.1C0.5,273.3,0.5,239.4,0.5,205.4z"/>
		<path class="st3" d="M612.5,510.7c0,33.9,0,67.8,0,101.7c-204,0-408,0-612,0c0-33.9,0-67.8,0-101.7c52.3,0,104.7,0,157,0
			c1.5,0,3-0.1,4.6-0.1c1.8,3,3.5,6.1,5.5,9c12.5,19.2,29.8,31.7,52,36.9c23.1,5.4,46,4.3,68-4.7c13.4-5.5,24.1-14.5,31.4-27
			c2.6-4.5,4.7-9.4,7-14.2c13.6,0,27.2,0,40.8,0c0.4,0.5,0.8,1,1.2,1.5c4.9,5.9,9.2,12.3,14.7,17.6c15.5,15,34.6,23.4,55.5,27.4
			c21.6,4.1,43.1,3.6,64.4-2.3c12.8-3.5,24.4-9.4,34.4-18.3c8-7.2,13.9-16,18.2-25.8c1.3,0,2.6,0.1,3.8,0.1
			C576.8,510.7,594.7,510.7,612.5,510.7z"/>
		<path class="st4" d="M0.5,307.2c1.3,0,2.6-0.1,3.8-0.1c88.7,0,177.3,0,266,0c1.3,0,2.6,0,3.8,0c0.1,0.5,0.2,1.1,0.2,1.6
			c0,33.4,0,66.8,0,100.2c-0.4,0-0.8,0-1.2,0c-89.9,0-179.8,0-269.8,0c-1,0-1.9,0-2.9,0.1C0.5,375,0.5,341.1,0.5,307.2z"/>
		<path class="st5" d="M0.5,409c1,0,1.9-0.1,2.9-0.1c89.9,0,179.8,0,269.8,0c0.4,0,0.8,0,1.2,0c0,21.2,0.1,42.4-0.1,63.6
			c-0.1,5.7-0.8,11.5-2.2,17c-2.4,9.6-8.4,16.2-18.5,17.7c-5.2,0.8-10.5,0.9-15.7,0.5c-6.7-0.5-12.6-3.4-16.8-8.7
			c-4.4-5.6-8.3-11.5-12.3-17.4c-1.8-2.6-1.6-2.8-4.3-1.2c-13.4,8.1-26.8,16.2-40.2,24.3c-3.6,2.2-3.6,2.2-2.2,5.8
			c-1.5,0-3,0.1-4.6,0.1c-52.3,0-104.7,0-157,0C0.5,476.8,0.5,442.9,0.5,409z"/>
		<path class="st4" d="M534.5,307.2c20.8,0,41.6,0,62.3-0.1c5.2,0,10.4,0,15.6,0.1c0,33.9,0,67.8,0,101.8c-0.6,0-1.3-0.1-1.9-0.1
			c-29.1,0-58.2,0-87.3,0c-0.7,0-1.4,0.1-2.2,0.1c-0.4-0.2-0.8-0.3-1.1-0.5c-12-7.5-24.8-13.4-37.9-18.9
			c-11.1-4.7-22.2-9.4-32.5-15.7c-7.1-4.4-12.3-9.8-13.8-18.5c-2.1-12.1,3.8-23.5,15-27.7c6.6-2.5,13.5-2.4,20.4-1.2
			c10.2,1.8,17.5,7.8,23.3,15.9c1.7,2.4,3.3,5,5.1,7.7c14.9-9.6,29.6-19,44.6-28.7C540.8,316.6,537.7,311.9,534.5,307.2z"/>
		<path class="st5" d="M521.1,409c0.7,0,1.4-0.1,2.2-0.1c29.1,0,58.2,0,87.3,0c0.6,0,1.3,0,1.9,0.1c0,33.9,0,67.8,0,101.8
			c-17.8,0-35.6,0-53.5,0c-1.3,0-2.6-0.1-3.8-0.1c0.4-1.2,0.9-2.4,1.3-3.6c4-12,4.7-24.2,3.7-36.7c-1.5-17.8-8-33.4-20.7-46
			C533.9,418.7,527.3,414.1,521.1,409z"/>
		<path class="st4" d="M331.6,408.9c0-0.8-0.1-1.6-0.1-2.4c0-32.3,0-64.7,0-97c0-0.8,0.1-1.6,0.1-2.4c19.1,0,38.2,0,57.3,0
			c1.3,0,2.6,0,3.8,0.1c-3.9,6-7.6,12.1-9.5,19c-1.6,5.9-3.2,11.9-3.8,18c-0.9,10.2-0.3,20.4,2.3,30.5c3.2,12.2,9.1,22.9,17.7,32.2
			c0.6,0.6,1.2,1.3,1.7,2c-0.8,0-1.6,0.1-2.4,0.1C376.4,408.9,354,408.9,331.6,408.9z"/>
		<path class="st5" d="M331.6,408.9c22.4,0,44.7,0,67.1,0c0.8,0,1.6-0.1,2.4-0.1c6.3,6,13,11.6,20.8,15.6
			c10.1,5.2,20.2,10.3,30.5,14.9c13,5.9,26,11.8,38.5,18.9c15.4,8.8,17.8,34,0.1,44.8c-7.5,4.6-15.7,6.2-24.3,6.4
			c-10.9,0.3-21.6-1.1-31.3-6.7c-8.1-4.6-14.5-11.2-20.3-18.4c-2-2.6-3.9-5.3-5.7-8c-0.8-1.3-1.6-1.3-2.7-0.6
			c-11.6,6.8-23.2,13.5-34.8,20.2c-2.6,1.5-5.2,3.2-7.9,4.5c-1.8,0.9-2,1.9-1.1,3.6c1.3,2.2,2.5,4.4,3.7,6.7c-13.6,0-27.2,0-40.8,0
			c4.6-14,5.7-28.4,5.6-43c-0.1-18.5,0-37.1,0-55.6C331.5,411,331.6,409.9,331.6,408.9z"/>
	</g>
</g>
</svg>
