<?xml version="1.0" encoding="utf-8"?>
<!-- Generator: Adobe Illustrator 19.0.0, SVG Export Plug-In . SVG Version: 6.00 Build 0)  -->
<svg version="1.1" id="Layer_1" xmlns="http://www.w3.org/2000/svg" xmlns:xlink="http://www.w3.org/1999/xlink" x="0px" y="0px"
	 viewBox="0 0 612 550.7" style="enable-background:new 0 0 612 550.7;" xml:space="preserve">
<style type="text/css">
	.st0{fill:#855DA7;}
	.st1{fill:#7DC243;}
	.st2{fill:#5E94CD;}
	.st3{fill:#EE4C4E;}
	.st4{fill:#F79B48;}
	.st5{fill:#EFDA50;}
	.st6{fill:#EE4B4D;}
</style>
<g>
	<g>
		<path class="st0" d="M306.5,96.7c3.3-2.9,6.7-5.9,10-8.8c17.7-15.8,36.6-30,58.2-40.2c12.5-5.9,25.6-10.2,39.5-10.4
			c20.3-0.3,35.7,8.5,45.6,26.3c5.7,10.2,8.5,21.3,10.1,32.8c2.2,16.4,2,32.9-0.5,49.2c-2,13.6-4.9,27.2-7.3,40.7
			c-0.5,0-1,0-1.4-0.1c-6.6-1.7-13.1-3.5-19.7-5.2c1.4-6.1,2.9-12.1,4.2-18.2c3.6-17.1,5.8-34.3,5.1-51.8c-0.4-9.9-2-19.7-5.8-29
			c-6.1-14.8-17.8-22.7-33.7-22.5c-8.9,0.1-17.3,2.6-25.4,6.2c-24.5,11-44.5,28-63.3,46.7c-3.7,3.8-7.5,7.5-11.2,11.3
			c-1.4,1.5-2.6,3.1-3.9,4.7c-0.6,0.5-1.3,0.9-1.8,1.5c-8.2,9.8-16.4,19.6-24.5,29.5c-2,2.4-3.6,5-5.4,7.6c-0.4,0.3-0.9,0.6-1.2,1.1
			c-2.3,3-4.6,6.1-6.7,9.2c-3.2,4.5-6.2,9.2-9.3,13.8c-0.4,0.4-0.8,0.8-1.1,1.2c-12.9,19.1-24.8,38.9-35.7,59.2
			c-4.3,8-8.4,16.1-12.6,24.2c-4.1-9-8.3-17.9-12.4-26.9c0.2-0.3,0.5-0.6,0.7-1c6.2-11.2,12.3-22.4,18.7-33.5
			c3.9-6.9,8.2-13.5,12.3-20.3c4.8-7,9.6-14.1,14.4-21.1c0.7-1.1,1.3-2.3,2-3.4l0,0c0.2-0.1,0.3-0.2,0.5-0.3
			c0.3-0.3,0.6-0.5,0.8-0.9c11-15.4,22.7-30.2,35.2-44.4c3.5-4,7.1-8,10.6-12c3.4-3.4,6.9-6.9,10.3-10.3
			C303.4,100.1,304.9,98.4,306.5,96.7z"/>
		<path class="st1" d="M462.3,365.6c1.2,5.6,2.4,11.2,3.5,16.8c4.4,22,6.8,44.1,5,66.5c-1.2,14.7-4.3,28.9-11.9,41.8
			c-11,18.5-29.4,26.2-49.9,24c-18.6-2-35.1-9.6-50.9-19.1c-18.6-11.2-35.4-24.9-51-40.1c0.2-0.4,0.4-0.9,0.7-1.2
			c3.9-3.9,7.8-7.9,11.7-11.8c0.9-0.9,1.9-1.6,2.8-2.5c10.2,10.1,20.8,19.6,32.4,28.1c12.5,9.2,25.7,17.4,40.7,21.9
			c8.3,2.5,16.7,3.7,25.3,1.7c12.3-2.9,19.7-11.3,24.2-22.5c4.2-10.4,5.4-21.3,5.6-32.4c0.2-13.8-1.4-27.4-4-40.9
			c-1.6-8.3-3.8-16.5-5.7-24.7c-2.1-7.1-4.2-14.3-6.2-21.4c-3.1-8.8-6-17.8-9.3-26.5c-2.5-6.7-5.4-13.2-8.2-19.8
			c-1-2.4-1.8-4.9-2.9-7.3c-3.1-6.7-6.3-13.3-9.4-19.9c-0.2-0.4-0.3-0.9-0.5-1.3c-10.2-21-21.5-41.4-33.8-61.2
			c-4.7-7.6-9.6-15.1-14.4-22.6c9.9,0.9,19.7,1.8,29.6,2.7c0.3,0.6,0.6,1.3,1,1.9c5.8,9.7,11.8,19.3,17.5,29.1
			c4.5,7.8,8.7,15.8,13,23.7c4.4,9.1,8.8,18.2,13.2,27.3c0.1,0.4,0.3,0.7,0.4,1.1c5.8,14.2,11.7,28.4,17.3,42.7
			c3.2,8.2,5.6,16.6,8.4,24.9c0.5,1.8,0.9,3.5,1.4,5.3C459.4,355.2,460.8,360.4,462.3,365.6z"/>
		<path class="st2" d="M462.3,365.6c-1.5-5.2-2.9-10.4-4.4-15.6c-0.5-1.8-0.9-3.5-1.4-5.3c17.8-4.9,35.2-10.8,51.8-19.2
			c12.4-6.3,24-13.7,33.3-24.3c13.4-15.2,13.9-33.1,1.1-48.7c-6-7.3-13.3-13.1-21.2-18.2c-17.8-11.3-37.4-18.6-57.5-24.6
			c-2.6-0.8-5.2-1.3-7.9-1.9c-1.6-0.6-3.3-1.3-4.9-1.7c-5.5-1.3-11-2.4-16.5-3.6c-3.4-0.8-6.7-1.8-10.1-2.4
			c-12.9-2.1-25.9-4.1-38.8-6.2c-9.9-0.9-19.7-1.8-29.6-2.7c-6-0.4-11.9-1-17.9-1.1c-15.6-0.3-31.3-0.4-46.9-0.5
			c-2.6,0-5.1,0.1-7.7,0.2c-8.4,0.4-16.9,0.8-25.3,1.2c3.1-4.6,6.2-9.2,9.3-13.8c2.2-3.1,4.5-6.2,6.7-9.2c0.3-0.4,0.8-0.7,1.2-1
			c14.5-0.3,29-0.6,43.6-0.7c6.5-0.1,12.9,0.4,19.4,0.6c1.8,0.1,3.7,0.3,5.5,0.4c8.1,0.6,16.2,1.1,24.3,1.7c3.9,0.5,7.7,1,11.6,1.4
			c20.6,2.3,41,5.9,61.2,10.5c6.6,1.7,13.1,3.5,19.7,5.2c0.5,0.1,0.9,0.1,1.4,0.1c2.9,1,5.7,1.9,8.6,2.8
			c22.5,7.2,44.3,16.1,64.2,29.1c11.6,7.6,22,16.4,30.1,27.8c13.5,18.8,13.6,41.4,0.1,60.3c-9.6,13.4-22.3,23.3-36.2,31.6
			c-20.3,12.2-42.2,20.5-64.7,27.3C463.6,365.4,462.9,365.5,462.3,365.6z"/>
		<path class="st3" d="M306.5,96.7c-1.6,1.7-3.1,3.4-4.7,5.1c-3.4,3.5-6.9,6.9-10.3,10.3c-0.6-0.6-1.3-1.2-1.9-1.8
			C276.1,97.2,262,85,246,75c-11.9-7.5-24.4-13.7-38.5-15.7c-17.3-2.5-31.3,5.2-38.4,21.2c-4.5,10.1-6,20.8-6.3,31.7
			c-0.5,18.1,2,35.8,5.9,53.4c1.2,5.2,2.7,10.3,4,15.5c0.1,0.8,0.1,1.6,0.3,2.4c1.8,6.3,3.7,12.5,5.6,18.8c0.9,2.7,1.7,5.5,2.7,8.1
			c4.9,12.8,10,25.6,14.9,38.4c4.1,9,8.3,17.9,12.4,26.9c0.3,0.7,0.5,1.5,0.9,2.2c5.3,10.1,10.1,20.5,15.9,30.3
			C236,326,247,343.4,257.7,361c-9.9-1-19.8-1.9-29.7-2.9c-5.5-9.1-11.1-18.2-16.5-27.4c-5.2-9-10.1-18.2-15.2-27.3
			c-4.4-9-8.7-18-13.1-26.9c-0.3-0.9-0.7-1.8-1-2.7c-5.8-14.3-11.7-28.6-17.3-43c-3-7.7-5.3-15.6-8-23.5c-1-3.9-2-7.9-3.1-11.8
			c-0.8-3-1.8-5.9-2.7-8.9c-0.7-3.5-1.4-7-2.1-10.5c-4.4-20.7-7.4-41.5-6.9-62.7c0.4-15.1,2.3-29.9,8.4-43.9
			c6.2-14.2,15.8-24.9,30.9-29.8c10.8-3.5,21.7-3.1,32.7-0.6c16.1,3.6,30.6,10.8,44.5,19.5C276.1,69.5,291.8,82.5,306.5,96.7z"/>
		<path class="st4" d="M151.2,186.7c0.9,3,1.9,5.9,2.7,8.9c1.1,3.9,2.1,7.8,3.1,11.8c-0.6,0.2-1.2,0.4-1.8,0.6
			c-15.5,4.3-30.8,9.5-45.4,16.4c-13.9,6.6-26.9,14.3-37.5,25.8c-14.3,15.5-15.1,33.3-1.9,49.8c6.5,8.1,14.7,14.2,23.4,19.5
			c14.1,8.6,29.3,14.8,45,20c6.1,2,12.4,3.6,18.6,5.3c7.1,1.8,14.3,3.6,21.4,5.3c0.2,0.1,0.4,0.2,0.7,0.3c8.9,1.6,17.8,3.4,26.8,4.9
			c7.2,1.2,14.5,2,21.8,3c9.9,1,19.8,1.9,29.7,2.9c4.5,0.3,8.9,0.8,13.4,0.9c14.1,0.3,28.1,0.6,42.2,0.7c6.8,0,13.6-0.2,20.4-0.5
			c7.3-0.3,14.7-0.7,22-1c-5.8,8.1-11.5,16.3-17.3,24.4c-0.9,0-1.8-0.1-2.6-0.1c-12.8,0.2-25.6,0.4-38.3,0.5c-7.3,0-14.7-0.3-22-0.5
			c-2.8-0.2-5.7-0.5-8.5-0.7c-7.2-0.5-14.4-1.1-21.6-1.6c-5.7-0.7-11.4-1.2-17.1-2c-12.5-1.9-25.1-3.9-37.6-6
			c-6.1-1-12.2-2.4-18.3-3.7c-7-1.9-14-3.8-20.9-5.7c-11.1-3.8-22.3-7.3-33.2-11.6c-20.5-8.1-40-18.3-56.5-33.2
			c-7.8-7.1-14.6-15.1-18.9-24.8c-7.7-17.2-5.3-33.5,4.9-48.9c8-12,18.8-21,30.7-28.9c18.5-12.2,38.7-20.7,59.6-27.7
			C142.3,189.2,146.8,188.1,151.2,186.7z"/>
		<path class="st5" d="M151.4,365.8c7,1.9,14,3.8,20.9,5.7c-4.6,18.5-8.5,37.2-9.3,56.3c-0.6,14,0.1,27.8,5,41.1
			c6.8,18.5,22.1,27.2,41.5,23.8c11.3-2,21.5-6.5,31.3-12.2c15.3-8.8,28.9-19.9,41.9-31.9c3-2.8,5.9-5.8,8.8-8.8
			c2.3-2.3,4.7-4.5,6.9-6.8c2.9-3,5.6-6.2,8.4-9.3c0.6-0.4,1.2-0.8,1.6-1.3c10-12.3,20-24.6,30-36.9c5.8-8.1,11.5-16.3,17.3-24.4
			c0.2-0.2,0.4-0.5,0.6-0.7c13.2-19.5,25.3-39.7,36.4-60.5c4.1-7.7,8.1-15.6,12.1-23.4c3.1,6.6,6.3,13.2,9.4,19.9
			c1.1,2.4,2,4.9,2.9,7.3c-0.2,0.3-0.4,0.5-0.5,0.8c-9.5,18.4-19.9,36.2-31,53.7c-5.6,8.3-11.2,16.6-16.8,24.9
			c-0.4,0.5-0.8,1-1.2,1.5c-11.2,15.6-23.1,30.7-35.9,45c-3.1,3.5-6.2,7.1-9.2,10.6c-1,0.8-2,1.6-2.8,2.5
			c-3.9,3.9-7.8,7.8-11.7,11.8c-0.3,0.3-0.5,0.8-0.7,1.2c-2.9,2.5-5.8,5-8.6,7.6c-14.3,12.9-29.4,24.7-46,34.3
			c-13.1,7.6-26.7,13.7-41.7,16.4c-11.1,2-22.1,1.7-32.7-2.7c-12-4.9-20.2-13.9-25.8-25.3c-5-10.1-7.5-20.8-8.8-31.9
			c-1.3-10.5-1.8-21.1-0.8-31.6c1-11.2,2.4-22.4,4.1-33.5C147.9,381.2,149.8,373.5,151.4,365.8z"/>
		<path class="st3" d="M322.2,112.5c16.3,17.3,31.3,35.8,45.2,55.2c0.3,0.4,0.6,0.9,0.9,1.4c-8.1-0.6-16.2-1.1-24.3-1.7
			c-1.8-0.1-3.7-0.3-5.5-0.4c-0.5-0.7-0.9-1.3-1.4-2c-10-12.2-20-24.3-29.9-36.5c1.3-1.6,2.5-3.2,3.9-4.7
			C314.7,120,318.4,116.2,322.2,112.5z"/>
		<path class="st4" d="M172.7,181.1c6.4-1.4,12.8-3.2,19.3-4.3c12.8-2.2,25.6-4.1,38.5-6c4.6-0.7,9.2-0.9,13.8-1.3
			c-0.7,1.2-1.2,2.4-2,3.4c-4.8,7.1-9.6,14.1-14.4,21.1c-8.5,1.2-16.9,2.2-25.4,3.6c-8,1.3-16,3-24,4.6c-1.9-6.3-3.8-12.5-5.6-18.8
			C172.8,182.7,172.8,181.9,172.7,181.1z"/>
		<path class="st4" d="M244.3,169.5c0.2-0.1,0.3-0.2,0.5-0.3C244.6,169.3,244.5,169.4,244.3,169.5z"/>
		<path class="st0" d="M456.1,207.9c-3.8,11.2-7.2,22.6-11.4,33.7c-4.4,11.6-9.5,23-14.3,34.5c-4.4-9.1-8.8-18.2-13.2-27.3
			c5.8-15.4,11.6-30.8,17.5-46.1c5.5,1.2,11,2.4,16.5,3.6C452.8,206.6,454.4,207.3,456.1,207.9z"/>
		<path class="st2" d="M440.9,371.4c-20.2,4.9-40.8,8.1-61.4,10.7c-3.6,0.4-7.1,0.7-10.7,1c5.6-8.3,11.2-16.6,16.8-24.9
			c0.6,0,1.1,0,1.7-0.1c7.4-1.1,14.9-2,22.3-3.3c8.4-1.4,16.8-3.2,25.1-4.8C436.7,357.1,438.8,364.2,440.9,371.4z"/>
		<path class="st5" d="M157.4,344.7c2.2-6.9,4.1-13.9,6.7-20.7c5.7-15,11.8-29.8,17.8-44.7c0.4-1,0.9-1.9,1.4-2.8
			c4.4,9,8.7,18,13.1,26.9c-2.6,6.3-5.4,12.6-7.8,19.1c-3.4,9.1-6.5,18.4-9.7,27.5C171.7,348.2,164.5,346.5,157.4,344.7z"/>
		<path class="st1" d="M291.4,439.8c-16.4-17.3-31.2-35.8-45.2-55c-0.4-0.5-0.7-1.1-1-1.6c7.2,0.5,14.4,1.1,21.6,1.6
			c2.8,0.2,5.7,0.5,8.5,0.7c10.4,12.7,20.9,25.5,31.3,38.2c-2.8,3.1-5.5,6.3-8.4,9.3C296.1,435.4,293.7,437.6,291.4,439.8z"/>
		<path class="st6" d="M354.2,275.8c0,26.3-21.4,47.8-47.7,47.8c-26.3,0-47.8-21.4-47.8-47.7c0-26.3,21.4-47.8,47.7-47.8
			C332.8,228.1,354.2,249.5,354.2,275.8z"/>
	</g>
</g>
</svg>
